<?xml version="1.0" encoding="utf-8"?>
<!-- Svg Vector Icons : http://www.sfont.cn -->
<!DOCTYPE svg PUBLIC "-//W3C//DTD SVG 1.1//EN" "http://www.w3.org/Graphics/SVG/1.1/DTD/svg11.dtd">
<svg version="1.1" xmlns="http://www.w3.org/2000/svg" xmlns:xlink="http://www.w3.org/1999/xlink" x="0px" y="0px" viewBox="0 0 1000 1000" enable-background="new 0 0 1000 1000" xml:space="preserve">
<metadata> Svg Vector Icons : http://www.sfont.cn </metadata>
<g><g transform="translate(0.000000,512.000000) scale(0.100000,-0.100000)"><path d="M4765.1,5008.1c-719.5-82.7-1462.1-477.1-1952.6-1038.8c-650.2-742.6-906.1-1723.7-702.2-2693.3c53.9-261.6,121.2-448.2,259.7-727.2c471.3-946.5,1373.6-1583.2,2414.3-1704.4c271.2-30.8,721.4-11.6,971.5,40.4c1987.2,419.4,3053,2558.6,2183.5,4376.5c-434.8,906.1-1290.8,1552.5-2283.5,1721.8C5446.1,5019.6,4978.7,5031.2,4765.1,5008.1z M4534.3,4459.8c-232.8-286.6-405.9-550.2-559.8-848.4l-127-248.2l-134.7,117.3c-121.2,103.9-334.7,352.1-409.8,475.2c-26.9,44.2-25,48.1,38.5,103.9c107.7,92.3,400.1,286.6,536.7,354c188.5,94.3,373.2,163.5,567.5,215.5C4734.3,4702.2,4732.4,4706,4534.3,4459.8z M5805.9,4636.8c286.6-73.1,602.1-205.8,813.8-342.4c125-80.8,377-273.2,377-288.6c0-65.4-513.6-632.9-557.9-615.6c-7.7,3.8-63.5,102-123.1,217.4c-138.5,267.4-384.7,636.8-586.7,881.1C5551.9,4700.3,5551.9,4700.3,5805.9,4636.8z M4982.5,2961.2c-19.2-17.3-327,28.9-467.5,71.2c-184.7,53.9-384.8,144.3-384.8,173.1c0,42.3,213.5,448.2,336.7,634.8c121.2,188.5,321.3,452.1,442.5,582.9l76.9,84.6l5.8-767.6C4994,3319,4990.2,2968.9,4982.5,2961.2z M5630.8,4107.8c171.2-228.9,300.1-438.6,430.9-698.3l105.8-211.6l-150.1-67.3c-171.2-78.9-394.4-140.4-584.8-163.5l-128.9-15.4v775.3v777.2l98.1-111.6C5455.7,4330.9,5557.7,4203.9,5630.8,4107.8z M3154.9,3636.4c92.3-128.9,354-396.3,502.1-511.7l75-59.6l-51.9-180.8c-61.6-221.2-103.9-442.5-123.1-644.5l-13.5-152l-594.4-5.8l-594.4-3.9l13.5,136.6c46.2,507.9,259.7,1027.3,596.4,1454.4c44.3,55.8,82.7,100,88.5,100C3058.7,3769.2,3104.9,3709.5,3154.9,3636.4z M7360.3,3617.2c207.8-277,338.6-525.2,442.5-852.2c61.6-196.2,117.4-477.1,117.4-604.1v-82.7h-584.8h-586.7l-9.6,82.7c-44.2,357.8-90.4,588.7-175,871.5c-9.6,30.8,7.7,55.8,94.3,121.2c138.5,107.7,369.3,348.2,473.2,498.3c46.2,65.4,90.4,119.3,98.1,119.3C7237.2,3771.1,7296.8,3701.8,7360.3,3617.2z M6379.2,2482.2c21.2-111.6,42.3-248.2,48.1-302l9.6-102h-565.6h-567.5v278.9c0,317.4-21.2,284.7,202,307.8c171.2,19.2,440.5,92.3,615.6,169.3l153.9,65.4l32.7-107.7C6327.2,2732.3,6359.9,2593.8,6379.2,2482.2z M4218.8,2811.2c180.8-73.1,519.4-155.8,636.8-155.8c28.9,0,73.1-5.8,98.1-11.5c42.3-11.5,42.3-17.3,42.3-288.6v-277h-567.5H3861v84.6c0,167.4,117.4,723.3,153.9,723.3C4022.5,2886.2,4114.9,2851.6,4218.8,2811.2z M3558.9,1597.3c13.5-190.4,73.1-498.2,132.7-690.6l38.5-123.1l-65.4-50c-125-96.2-405.9-379-509.8-517.5L3051.1,77.5l-84.6,102c-325.1,398.2-552.1,952.3-598.3,1458.2l-13.5,132.7H2951h596.4L3558.9,1597.3z M4996,1491.5c0-209.7-5.8-278.9-23.1-278.9c-65.4,0-421.3-61.6-515.6-88.5c-57.7-15.4-182.8-59.6-275.1-98.1c-94.3-36.5-175.1-61.6-180.8-57.7c-34.6,36.6-140.4,573.3-140.4,721.4v80.8h567.5H4996V1491.5z M6427.3,1670.4c-19.2-177-61.6-413.6-103.9-573.3l-42.3-152l-71.2,34.6c-190.4,98.1-494.4,180.8-813.7,223.2l-92.3,11.5v278.9v277h567.5h565.6L6427.3,1670.4z M7920.1,1685.8c0-284.7-161.6-806-350.1-1136.9c-82.7-140.4-321.3-471.3-342.4-471.3c-7.7,0-46.2,50-88.5,111.6c-94.3,136.6-369.4,425.2-494.4,517.5c-65.4,48.1-88.5,77-80.8,100c7.7,17.3,36.6,130.8,67.3,252c50,196.2,67.3,300.1,107.7,631l9.6,80.8h586.7h584.8V1685.8z M4992.1,92.9c1.9-442.5-1.9-804.1-11.5-804.1c-23.1,0-305.9,363.6-452.1,582.9c-117.3,175.1-346.3,600.2-398.2,734.9c-19.2,48.1-15.4,51.9,102,103.9c169.3,77,344.4,130.8,523.3,163.5C5015.2,920.1,4986.4,1018.2,4992.1,92.9z M5505.8,875.8c261.6-42.3,663.7-186.6,663.7-236.6c0-9.6-59.6-132.7-130.8-277c-182.8-361.7-404-692.6-684.9-1025.4l-48.1-57.7l-1.9,813.7c0,446.3,5.8,811.8,15.4,811.8C5326.9,904.7,5411.5,891.2,5505.8,875.8z M3972.5,214.1c127-259.7,388.6-671.4,569.4-894.5c59.6-73.1,105.8-136.6,102-138.5c-9.6-9.6-280.9,61.6-417.5,109.7c-165.4,55.8-404,169.3-552.1,261.6c-148.1,92.3-388.6,279-390.5,302c0,21.2,180.8,261.6,282.8,371.3c82.7,90.4,252,236.6,271.2,236.6C3845.6,460.3,3905.2,350.7,3972.5,214.1z M6615.8,323.7c132.7-128.9,380.9-438.6,380.9-477.1c0-25-313.6-253.9-473.2-346.3c-194.3-111.6-461.7-219.3-690.6-278.9c-103.9-26.9-190.5-46.2-194.3-42.3c-1.9,1.9,46.2,69.3,109.7,148.1c192.4,240.5,413.6,588.7,552.1,867.6c71.2,146.2,138.5,265.5,150,265.5C6460,462.2,6535,398.8,6615.8,323.7z"/><path d="M7670-3058.2v-1096.5h182.8h182.8v1096.5v1096.5h-182.8H7670V-3058.2z"/><path d="M1056.1-2096.4c-184.7-50-280.9-94.2-407.8-190.4c-263.6-200.1-390.5-477.1-390.5-858c-1.9-498.3,248.2-844.5,707.9-983c88.5-26.9,178.9-36.6,384.8-36.6c257.8,1.9,380.9,17.3,590.6,80.8l92.3,26.9l-3.8,523.3l-5.8,523.3h-365.5h-365.5v-144.3v-144.3l178.9-5.8l177-5.8v-255.9c0-298.2,13.5-278.9-211.6-294.3c-467.5-32.7-788.7,271.3-788.7,744.5c0,323.2,165.4,586.7,434.8,694.5c155.8,61.5,517.5,65.4,684.9,5.8l109.6-38.5l38.5,142.3c21.2,78.9,34.6,152,28.9,159.7c-26.9,44.2-225.1,78.9-479,86.6C1242.7-2059.8,1173.5-2063.6,1056.1-2096.4z"/><path d="M2906.8-2635c-277-55.8-496.3-278.9-565.6-575.2c-32.7-138.5-15.4-386.7,36.6-525.2c117.3-307.8,484.8-502.1,833-438.6c396.3,73.1,631,365.5,631,788.7C3839.8-2860.1,3432-2531.1,2906.8-2635z M3260.7-2946.7c177-107.7,246.2-475.2,136.6-727.2c-69.3-157.8-169.3-230.8-315.5-230.8c-150.1,0-244.3,71.2-319.4,240.5c-55.8,123.1-59.6,357.8-11.5,502.1C2831.7-2927.4,3064.5-2829.3,3260.7-2946.7z"/><path d="M4615.1-2644.6c-186.6-51.9-300.1-127-400.1-263.6c-171.2-230.8-202-598.3-75-875.3c127-278.9,469.4-446.3,798.4-390.5c448.2,77,690.6,429,631,919.6c-30.8,263.6-203.9,494.4-434.8,582.9C4992.1-2617.7,4753.6-2606.2,4615.1-2644.6z M4992.1-2940.9c23.1-13.5,69.3-57.7,98.1-100c157.8-217.4,115.4-661.8-78.9-806.1c-51.9-40.4-84.6-48.1-190.4-48.1c-107.7,0-136.6,7.7-194.3,52c-102,78.9-155.8,203.9-165.4,392.4c-13.5,242.4,61.6,438.6,196.2,511.7C4751.6-2887,4894-2887,4992.1-2940.9z"/><path d="M6331.1-2633.1c-340.5-88.5-546.4-417.4-523.3-831.1c19.2-304,150-517.5,382.8-623.3c105.8-46.2,134.7-51.9,277-44.2c173.1,9.6,294.3,61.6,375.1,163.5l42.3,53.9l-7.7-153.9c-13.5-240.5-88.5-354-273.2-413.6c-102-32.7-338.6-15.4-473.2,36.6c-57.7,23.1-111.6,40.4-117.3,40.4c-5.8,0-25-61.6-46.2-136.6c-40.4-157.7-42.3-152,125-205.8c78.9-25,171.2-32.7,365.5-32.7c227,0,273.2,5.8,373.2,46.2c157.7,63.5,300.1,205.8,357.8,357.8c50,132.8,53.9,196.2,63.5,1121.5l7.7,600.2h-159.7h-157.7l-13.5-94.3l-13.5-96.2l-57.7,67.3c-86.6,98.1-196.2,146.2-342.4,153.9C6446.5-2619.6,6363.8-2623.5,6331.1-2633.1z M6675.4-2931.3c80.8-32.7,159.7-127,186.6-219.3c23.1-88.5,25-352,0-454c-36.6-157.7-155.8-252-321.3-250.1c-134.7,1.9-234.7,67.3-296.2,194.3c-38.5,76.9-46.2,121.2-46.2,275.1c0,169.3,3.9,190.5,59.6,288.6C6352.2-2931.3,6517.7-2863.9,6675.4-2931.3z"/><path d="M8914.7-2635c-334.7-84.7-552.1-396.3-552.1-790.7c0-359.7,175.1-615.6,484.8-713.7c144.3-44.2,446.3-46.2,627.1-5.8c186.6,42.3,184.7,42.3,157.8,175c-13.5,63.5-26.9,119.3-30.8,127c-3.9,5.8-48.1,0-98.1-15.4c-134.7-40.4-438.6-40.4-534.8,0c-140.4,59.6-240.5,188.5-240.5,309.7v48.1h498.3h498.2l13.5,73.1c17.3,102-21.2,330.9-75,452.1c-55.8,128.9-177,253.9-294.3,305.9C9268.6-2625.4,9028.2-2608.1,8914.7-2635z M9237.9-2923.6c71.2-44.2,125-140.4,138.5-252l11.5-75H9057c-317.4,0-329,1.9-329,38.5c0,51.9,50,171.2,92.3,219.3C8920.4-2881.2,9114.7-2848.5,9237.9-2923.6z"/></g></g>
</svg>